# xmcd
# 
# Track frame offsets:
#     150
#     31052
#     44215
#     79112
#     106150
#     157852
#     210767
# 
# Disc length: 3009
# 
# Revision: 1
# Processed by: cddbd v1.5.2PL0 Copyright (c) Steve Scherf et al.
# Submitted via: BonkEnc v1.0.8
# 
DISCID=480bbf07
DTITLE=菊地雅章 - Possessed
DYEAR=1996
DGENRE=Contemporary Jazz
TTITLE0=Memories Of You
TTITLE1=Yesterbulues II
TTITLE2=It Never Entered My Mind
TTITLE3=Wrong Blues
TTITLE4=Inflammable
TTITLE5=Lueur de la nuit (theme from Headlight)
TTITLE6=For All We Know
EXTD=YEAR: 1997
EXTT0=
EXTT1=
EXTT2=
EXTT3=
EXTT4=
EXTT5=
EXTT6=
PLAYORDER=
